<?xml version="1.0" encoding="UTF-8"?>
<svg id="_图层_1" data-name="图层_1" xmlns="http://www.w3.org/2000/svg" version="1.1" viewBox="0 0 560 124">
  <!-- Generator: Adobe Illustrator 29.1.0, SVG Export Plug-In . SVG Version: 2.1.0 Build 142)  -->
  <defs>
    <style>
      .st0 {
        fill: #fff;
        fill-rule: evenodd;
      }
    </style>
  </defs>
  <path class="st0" d="M18.7,16.9v37.8h51.4v16.9H18.7v52.4H0V0h79v16.9H18.7h0ZM143.7,71.8l26,52.2h21.9l-28.5-54.9c13.9-3.8,24.6-15.2,24.6-32.9S172.9,0,149.5,0h-47.9v124h18.7v-52.2h23.4ZM215.3,0v124h18.7V0h-18.7ZM341.6,112.3c-7.8,7.8-19.1,11.7-31.9,11.7h-43.4V0h43.4C322.5,0,333.8,3.8,341.6,11.7c12.6,12.6,12.5,29.4,12.5,46.4,0,1,0,2.1,0,3.1s0,2.1,0,3.1c0,17.1,0,35.5-12.5,48.1ZM451.2,124l-8.5-24.9h-48.8l-8.5,24.9h-20L410.7,0h15.1l45.3,124h-20,0ZM523,124v-51h0L560,0h-20.5l-25.9,54.5L487.8,0h-20.5l37,73v51h18.7ZM328.8,25.2c-5.2-5.7-12.2-8.4-21-8.4h-22.7v90.2h22.7c8.9,0,15.8-2.6,21-8.4,6.4-7.1,6.6-20.6,6.6-37.6s-.2-28.7-6.6-35.9ZM120.3,16.9h27.8c12.5,0,21,7.3,21,19.5s-8.5,19.3-21,19.3h-27.8V16.9ZM418.7,28l-19.3,55h38l-18.7-55Z"/>
</svg>